# xmcd CD Database Entry
#
# Track frame offsets:
# 150
# 11342
# 23845
# 37010
# 50098
# 64764
# 77855
# 90950
# 104482
# 116407
# 128749
# 140965
# 154481
# 173922
# 185738
# 200692
# 213232
# 227368
# 241892
# 256734
#
# Disc length: 3582 seconds
#
# Revision: 1
# Processed by: cddbd v1.4PL0 Copyright (c) Steve Scherf et al.
# Submitted via: tcd 2.0b
#
DISCID=150dfc14
DTITLE=Ella Fitzgerald - Essential - Masters of Jazz
DYEAR=1900
DGENRE=
TTITLE0=Flying Home
TTITLE1=Sugar Blues
TTITLE2=I'm Just A Lucky So And So
TTITLE3=You'll Have To Swing It (Mr. Paganini)
TTITLE4=Oh, Lady Be Good
TTITLE5=You Won't Be Satisfied
TTITLE6=Cow Cow Boogie
TTITLE7=Jim
TTITLE8=A-Tisket, A-Tasket
TTITLE9=I'm Beginning To See The Light
TTITLE10=Mama, Come Home
TTITLE11=Moon Ray
TTITLE12=How High The Moon
TTITLE13=Petootie Pie
TTITLE14=Undecided
TTITLE15=Cry You Out Of My Heart
TTITLE16=Into Each Life Some Rain Must Fall
TTITLE17=The Frim Fram Sauce
TTITLE18=Sentimental Journey
TTITLE19=My Baby Likes To Bebop
EXTD=
EXTT0=
EXTT1=
EXTT2=
EXTT3=
EXTT4=
EXTT5=
EXTT6=
EXTT7=
EXTT8=
EXTT9=
EXTT10=
EXTT11=
EXTT12=
EXTT13=
EXTT14=
EXTT15=
EXTT16=
EXTT17=
EXTT18=
EXTT19=
PLAYORDER=
